@startuml
class EditItemCommand {
- ItemList item_list
- Item old_item
- Item new_item
- Context context
+ void execute()
}
class ItemController {
- Item item
+ String getId()
+ void setId()
+ void setTitle(String)
+ String getTitle()
+ void setMaker(String)
+ String getMaker()
+ void setDescription(String)
+ String getDescription()
+ void setDimensions(String,String,String)
+ String getLength()
+ String getWidth()
+ String getHeight()
+ void setStatus(String)
+ String getStatus()
+ void setBorrower(Contact)
+ Contact getBorrower()
+ void addImage(Bitmap)
+ Bitmap getImage()
+ Item getItem()
+ void addObserver(Observer)
+ void removeObserver(Observer)
}
class EditCommand {
- T list
- U old_item
- U new_item
- Context context
+ void execute()
}
class AddContactCommand {
- ContactList contact_list
- Contact contact
- Context context
+ void execute()
}
class DeleteContactCommand {
- ContactList contact_list
- Contact contact
- Context context
+ void execute()
}
class AddItemCommand {
- ItemList item_list
- Item item
- Context context
+ void execute()
}
class ContactAdapter {
- LayoutInflater inflater
- Context context
+ View getView(int,View,ViewGroup)
}
class ContactController {
- Contact contact
+ String getId()
+ void setId()
+ void updateId(String)
+ String getUsername()
+ void setUsername(String)
+ String getEmail()
+ void setEmail(String)
+ Contact getContact()
+ void addObserver(Observer)
+ void removeObserver(Observer)
}
class DeleteItemCommand {
- ItemList item_list
- Item item
- Context context
+ void execute()
}
class BorrowedItemsFragment {
+ View onCreateView(LayoutInflater,ViewGroup,Bundle)
+ List<Item> filterItems()
}
class Observable {
- ArrayList<Observer> observers
+ void notifyObservers()
+ void addObserver(Observer)
+ void removeObserver(Observer)
}
abstract class Command {
- boolean is_executed
+ {abstract}void execute()
+ boolean isExecuted()
+ void setIsExecuted(boolean)
}
class ContactListController {
- ContactList contact_list
+ void setContacts(List<Contact>)
+ List<Contact> getContacts()
+ List<String> getAllUsernames()
+ boolean addContact(Contact,Context)
+ boolean deleteContact(Contact,Context)
+ boolean editContact(Contact,Contact,Context)
+ Contact getContact(int)
+ int getSize()
+ Contact getContactByUsername(String)
+ boolean hasContact(Contact)
+ int getIndex(Contact)
+ void loadContacts(Context)
+ boolean isUsernameAvailable(String)
+ void addObserver(Observer)
+ void removeObserver(Observer)
}
class SectionsPagerAdapter {
+ Fragment getItem(int)
+ int getCount()
+ CharSequence getPageTitle(int)
}
class MainActivity {
# void onCreate(Bundle)
+ boolean onCreateOptionsMenu(Menu)
+ boolean onOptionsItemSelected(MenuItem)
+ void addItemActivity(View)
}
class ItemList {
- {static} List<Item> items
- String FILENAME
- FileProcessor<Item> fileProcessor
+ void setItems(List<Item>)
+ List<Item> getItems()
+ void addItem(Item)
+ void deleteItem(Item)
+ Item getItem(int)
+ int getIndex(Item)
+ int getSize()
+ void loadItems(Context)
+ boolean saveItems(Context)
+ List<Contact> getActiveBorrowers()
+ List<Item> filterItemsByStatus(String)
}
class AddContactActivity {
- ContactList contact_list
- ContactListController contact_list_controller
- Context context
- EditText username
- EditText email
# void onCreate(Bundle)
+ void saveContact(View)
- boolean validateInput()
}
class ItemAdapter {
- LayoutInflater inflater
- Fragment fragment
- Context context
+ View getView(int,View,ViewGroup)
}
class AvailableItemsFragment {
+ View onCreateView(LayoutInflater,ViewGroup,Bundle)
+ List<Item> filterItems()
}
abstract class ItemsFragment {
- ItemList item_list
~ ItemListController item_list_controller
~ View rootView
- ListView list_view
- ArrayAdapter<Item> adapter
- List<Item> selected_items
- LayoutInflater inflater
- ViewGroup container
- Context context
- Fragment fragment
- boolean update
+ View onCreateView(LayoutInflater,ViewGroup,Bundle)
+ void setVariables(int,int)
+ void loadItems(Fragment)
+ void setFragmentOnItemLongClickListener()
+ {abstract}List<Item> filterItems()
+ void onDestroy()
+ void update()
}
interface Observer {
+ void update()
}
class AddItemActivity {
- EditText title
- EditText maker
- EditText description
- EditText length
- EditText width
- EditText height
- ImageView photo
- Bitmap image
- int REQUEST_CODE
- ItemList item_list
- ItemListController item_list_controller
- Context context
# void onCreate(Bundle)
+ void saveItem(View)
- boolean validateInput()
+ void addPhoto(View)
+ void deletePhoto(View)
# void onActivityResult(int,int,Intent)
}
class ContactList {
- {static} List<Contact> contacts
- {static} String FILENAME
- FileProcessor<Contact> fileProcessor
+ void setContacts(List<Contact>)
+ List<Contact> getContacts()
+ List<String> getAllUsernames()
+ void addContact(Contact)
+ void deleteContact(Contact)
+ Contact getContact(int)
+ int getSize()
+ Contact getContactByUsername(String)
+ boolean hasContact(Contact)
+ int getIndex(Contact)
+ void loadContacts(Context)
+ boolean saveContacts(Context)
+ boolean isUsernameAvailable(String)
}
class Contact {
- String username
- String email
- String id
+ String getId()
+ void setId()
+ void updateId(String)
+ String getUsername()
+ void setUsername(String)
+ String getEmail()
+ void setEmail(String)
}
class Dimensions {
- String length
- String width
- String height
+ String getLength()
+ String getWidth()
+ String getHeight()
}
class ContactsActivity {
- ContactList contact_list
- ContactListController contact_list_controller
- ContactList active_borrowers_list
- ContactListController active_borrowers_list_controller
- ItemList item_list
- ItemListController item_list_controller
- ListView my_contacts
- ArrayAdapter<Contact> adapter
- Context context
# void onCreate(Bundle)
# void onStart()
+ void addContactActivity(View)
# void onDestroy()
+ void update()
}
class EditContactCommand {
- ContactList contact_list
- Contact old_contact
- Contact new_contact
- Context context
+ void execute()
}
class ItemListController {
- ItemList item_list
+ void setItems(List<Item>)
+ List<Item> getItems()
+ boolean addItem(Item,Context)
+ boolean deleteItem(Item,Context)
+ boolean editItem(Item,Item,Context)
+ Item getItem(int)
+ int getIndex(Item)
+ int getSize()
+ void loadItems(Context)
+ List<Contact> getActiveBorrowers()
+ List<Item> filterItemsByStatus(String)
+ void addObserver(Observer)
+ void removeObserver(Observer)
}
class Item {
- String title
- String maker
- String description
- Dimensions dimensions
- String status
- Contact borrower
# Bitmap image
# String image_base64
- String id
+ String getId()
+ void setId()
+ void updateId(String)
+ void setTitle(String)
+ String getTitle()
+ void setMaker(String)
+ String getMaker()
+ void setDescription(String)
+ String getDescription()
+ void setDimensions(String,String,String)
+ String getLength()
+ String getWidth()
+ String getHeight()
+ void setStatus(String)
+ String getStatus()
+ void setBorrower(Contact)
+ Contact getBorrower()
+ void addImage(Bitmap)
+ Bitmap getImage()
}
class EditItemActivity {
- ItemList item_list
- ItemListController item_list_controller
- Item item
- ItemController item_controller
- Context context
- ContactList contact_list
- ContactListController contact_list_controller
- Bitmap image
- int REQUEST_CODE
- ImageView photo
- EditText title
- EditText maker
- EditText description
- EditText length
- EditText width
- EditText height
- Spinner borrower_spinner
- TextView borrower_tv
- Switch status
- EditText invisible
- ArrayAdapter<String> adapter
- boolean on_create_update
- int pos
# void onCreate(Bundle)
+ void addPhoto(View)
+ void deletePhoto(View)
# void onActivityResult(int,int,Intent)
+ void deleteItem(View)
+ void saveItem(View)
- boolean validateInput()
+ void toggleSwitch(View)
+ void update()
}
class EditContactActivity {
- ContactList contact_list
- ContactListController contact_list_controller
- Contact contact
- ContactController contact_controller
- EditText email
- EditText username
- Context context
- int pos
- boolean on_create_update
# void onCreate(Bundle)
+ void saveContact(View)
- boolean validateInput()
+ void deleteContact(View)
# void onDestroy()
+ void update()
}
class FileProcessor {
- String filename
- List<T> elements
+ List<T> loadContacts(Context)
+ boolean saveContacts(Context)
}
class AllItemsFragment {
+ View onCreateView(LayoutInflater,ViewGroup,Bundle)
+ List<Item> filterItems()
}


Command <|-- EditItemCommand
Command <|-- EditCommand
Command <|-- AddContactCommand
Command <|-- DeleteContactCommand
Command <|-- AddItemCommand
android.widget.ArrayAdapter <|-- ContactAdapter
Command <|-- DeleteItemCommand
ItemsFragment <|-- BorrowedItemsFragment
androidx.fragment.app.FragmentPagerAdapter <|-- SectionsPagerAdapter
androidx.appcompat.app.AppCompatActivity <|-- MainActivity
Observable <|-- ItemList
androidx.appcompat.app.AppCompatActivity <|-- AddContactActivity
android.widget.ArrayAdapter <|-- ItemAdapter
ItemsFragment <|-- AvailableItemsFragment
Observer <|.. ItemsFragment
androidx.fragment.app.Fragment <|-- ItemsFragment
androidx.appcompat.app.AppCompatActivity <|-- AddItemActivity
Observable <|-- ContactList
Observable <|-- Contact
Observer <|.. ContactsActivity
androidx.appcompat.app.AppCompatActivity <|-- ContactsActivity
Command <|-- EditContactCommand
Observable <|-- Item
Observer <|.. EditItemActivity
androidx.appcompat.app.AppCompatActivity <|-- EditItemActivity
Observer <|.. EditContactActivity
androidx.appcompat.app.AppCompatActivity <|-- EditContactActivity
ItemsFragment <|-- AllItemsFragment
@enduml